<?xml version="1.0" encoding="UTF-8" standalone="no"?> <!-- Created with Vectornator for iOS (http://vectornator.io/) --><!DOCTYPE svg PUBLIC "-//W3C//DTD SVG 1.1//EN" "http://www.w3.org/Graphics/SVG/1.1/DTD/svg11.dtd">
<svg xml:space="preserve" xmlns:vectornator="http://vectornator.io" height="100%" version="1.1" viewBox="0 0 81.6369 75.6556" width="100%" xmlns:xlink="http://www.w3.org/1999/xlink" xmlns="http://www.w3.org/2000/svg" style="fill-rule:nonzero;clip-rule:evenodd;stroke-linecap:round;stroke-linejoin:round;">
<metadata>
<vectornator:setting key="WDGuidesVisible" value="true"/>
<vectornator:setting value="false" key="WDIsolateActiveLayer"/>
<vectornator:setting value="false" key="WDSnapToPoints"/>
<vectornator:setting key="WDRulersVisible" value="true"/>
<vectornator:setting key="WDSnapToEdges" value="false"/>
<vectornator:setting key="WDDynamicGuides" value="false"/>
<vectornator:setting key="WDOutlineMode" value="false"/>
<vectornator:setting key="WDDisplayWhiteBackground" value="false"/>
<vectornator:setting value="true" key="UndoHistoryDisabled"/>
<vectornator:setting key="WDUnits" value="Pixels"/>
<vectornator:setting value="false" key="IsTimeLapseWatermarkDisabled"/>
<vectornator:setting key="VNDimensionsVisible" value="true"/>
<vectornator:setting value="false" key="WDSnapToGrid"/>
<vectornator:setting value="false" key="WDCMYKEnabledKey"/>
<vectornator:setting value="true" key="VNSnapToGuides"/>
</metadata>
<defs/>
<g id="Layer 1" vectornator:layerName="Layer 1">
<path opacity="1" stroke-linejoin="miter" stroke-width="2" fill="#000000" stroke="#ecebed" d="M52.9385+32.7931C52.3862+32.7931+51.9385+33.2408+51.9385+33.7931C51.9385+34.3453+52.3862+34.7931+52.9385+34.7931C53.4908+34.7931+53.9385+34.3453+53.9385+33.7931C53.9385+33.2408+53.4908+32.7931+52.9385+32.7931ZM48.9385+32.7931C48.3862+32.7931+47.9385+33.2408+47.9385+33.7931C47.9385+34.3453+48.3862+34.7931+48.9385+34.7931C49.4908+34.7931+49.9385+34.3453+49.9385+33.7931C49.9385+33.2408+49.4908+32.7931+48.9385+32.7931ZM44.9385+32.7931C44.3862+32.7931+43.9385+33.2408+43.9385+33.7931C43.9385+34.3453+44.3862+34.7931+44.9385+34.7931C45.4908+34.7931+45.9385+34.3453+45.9385+33.7931C45.9385+33.2408+45.4908+32.7931+44.9385+32.7931ZM40.9385+32.7931C40.3862+32.7931+39.9385+33.2408+39.9385+33.7931C39.9385+34.3453+40.3862+34.7931+40.9385+34.7931C41.4908+34.7931+41.9385+34.3453+41.9385+33.7931C41.9385+33.2408+41.4908+32.7931+40.9385+32.7931ZM32.9385+32.7931C32.3862+32.7931+31.9385+33.2408+31.9385+33.7931C31.9385+34.3453+32.3862+34.7931+32.9385+34.7931C33.4908+34.7931+33.9385+34.3453+33.9385+33.7931C33.9385+33.2408+33.4908+32.7931+32.9385+32.7931ZM28.9385+32.7931C28.3862+32.7931+27.9385+33.2408+27.9385+33.7931C27.9385+34.3453+28.3862+34.7931+28.9385+34.7931C29.4908+34.7931+29.9385+34.3453+29.9385+33.7931C29.9385+33.2408+29.4908+32.7931+28.9385+32.7931ZM24.9385+32.7931C24.3862+32.7931+23.9385+33.2408+23.9385+33.7931C23.9385+34.3453+24.3862+34.7931+24.9385+34.7931C25.4908+34.7931+25.9385+34.3453+25.9385+33.7931C25.9385+33.2408+25.4908+32.7931+24.9385+32.7931ZM20.9385+32.7931C20.3862+32.7931+19.9385+33.2408+19.9385+33.7931C19.9385+34.3453+20.3862+34.7931+20.9385+34.7931C21.4908+34.7931+21.9385+34.3453+21.9385+33.7931C21.9385+33.2408+21.4908+32.7931+20.9385+32.7931ZM52.9385+37.7931C52.3862+37.7931+51.9385+38.2408+51.9385+38.7931C51.9385+39.3453+52.3862+39.7931+52.9385+39.7931C53.4908+39.7931+53.9385+39.3453+53.9385+38.7931C53.9385+38.2408+53.4908+37.7931+52.9385+37.7931ZM48.9385+37.7931C48.3862+37.7931+47.9385+38.2408+47.9385+38.7931C47.9385+39.3453+48.3862+39.7931+48.9385+39.7931C49.4908+39.7931+49.9385+39.3453+49.9385+38.7931C49.9385+38.2408+49.4908+37.7931+48.9385+37.7931ZM44.9385+37.7931C44.3862+37.7931+43.9385+38.2408+43.9385+38.7931C43.9385+39.3453+44.3862+39.7931+44.9385+39.7931C45.4908+39.7931+45.9385+39.3453+45.9385+38.7931C45.9385+38.2408+45.4908+37.7931+44.9385+37.7931ZM40.9385+37.7931C40.3862+37.7931+39.9385+38.2408+39.9385+38.7931C39.9385+39.3453+40.3862+39.7931+40.9385+39.7931C41.4908+39.7931+41.9385+39.3453+41.9385+38.7931C41.9385+38.2408+41.4908+37.7931+40.9385+37.7931ZM32.9385+37.7931C32.3862+37.7931+31.9385+38.2408+31.9385+38.7931C31.9385+39.3453+32.3862+39.7931+32.9385+39.7931C33.4908+39.7931+33.9385+39.3453+33.9385+38.7931C33.9385+38.2408+33.4908+37.7931+32.9385+37.7931ZM28.9385+37.7931C28.3862+37.7931+27.9385+38.2408+27.9385+38.7931C27.9385+39.3453+28.3862+39.7931+28.9385+39.7931C29.4908+39.7931+29.9385+39.3453+29.9385+38.7931C29.9385+38.2408+29.4908+37.7931+28.9385+37.7931ZM24.9385+37.7931C24.3862+37.7931+23.9385+38.2408+23.9385+38.7931C23.9385+39.3453+24.3862+39.7931+24.9385+39.7931C25.4908+39.7931+25.9385+39.3453+25.9385+38.7931C25.9385+38.2408+25.4908+37.7931+24.9385+37.7931ZM20.9385+37.7931C20.3862+37.7931+19.9385+38.2408+19.9385+38.7931C19.9385+39.3453+20.3862+39.7931+20.9385+39.7931C21.4908+39.7931+21.9385+39.3453+21.9385+38.7931C21.9385+38.2408+21.4908+37.7931+20.9385+37.7931ZM52.9385+42.7931C52.3862+42.7931+51.9385+43.2408+51.9385+43.7931C51.9385+44.3453+52.3862+44.7931+52.9385+44.7931C53.4908+44.7931+53.9385+44.3453+53.9385+43.7931C53.9385+43.2408+53.4908+42.7931+52.9385+42.7931ZM48.9385+42.7931C48.3862+42.7931+47.9385+43.2408+47.9385+43.7931C47.9385+44.3453+48.3862+44.7931+48.9385+44.7931C49.4908+44.7931+49.9385+44.3453+49.9385+43.7931C49.9385+43.2408+49.4908+42.7931+48.9385+42.7931ZM44.9385+42.7931C44.3862+42.7931+43.9385+43.2408+43.9385+43.7931C43.9385+44.3453+44.3862+44.7931+44.9385+44.7931C45.4908+44.7931+45.9385+44.3453+45.9385+43.7931C45.9385+43.2408+45.4908+42.7931+44.9385+42.7931ZM40.9385+42.7931C40.3862+42.7931+39.9385+43.2408+39.9385+43.7931C39.9385+44.3453+40.3862+44.7931+40.9385+44.7931C41.4908+44.7931+41.9385+44.3453+41.9385+43.7931C41.9385+43.2408+41.4908+42.7931+40.9385+42.7931ZM32.9385+42.7931C32.3862+42.7931+31.9385+43.2408+31.9385+43.7931C31.9385+44.3453+32.3862+44.7931+32.9385+44.7931C33.4908+44.7931+33.9385+44.3453+33.9385+43.7931C33.9385+43.2408+33.4908+42.7931+32.9385+42.7931ZM28.9385+42.7931C28.3862+42.7931+27.9385+43.2408+27.9385+43.7931C27.9385+44.3453+28.3862+44.7931+28.9385+44.7931C29.4908+44.7931+29.9385+44.3453+29.9385+43.7931C29.9385+43.2408+29.4908+42.7931+28.9385+42.7931ZM24.9385+42.7931C24.3862+42.7931+23.9385+43.2408+23.9385+43.7931C23.9385+44.3453+24.3862+44.7931+24.9385+44.7931C25.4908+44.7931+25.9385+44.3453+25.9385+43.7931C25.9385+43.2408+25.4908+42.7931+24.9385+42.7931ZM20.9385+42.7931C20.3862+42.7931+19.9385+43.2408+19.9385+43.7931C19.9385+44.3453+20.3862+44.7931+20.9385+44.7931C21.4908+44.7931+21.9385+44.3453+21.9385+43.7931C21.9385+43.2408+21.4908+42.7931+20.9385+42.7931ZM52.9385+47.7931C52.3862+47.7931+51.9385+48.2408+51.9385+48.7931C51.9385+49.3453+52.3862+49.7931+52.9385+49.7931C53.4908+49.7931+53.9385+49.3453+53.9385+48.7931C53.9385+48.2408+53.4908+47.7931+52.9385+47.7931ZM48.9385+47.7931C48.3862+47.7931+47.9385+48.2408+47.9385+48.7931C47.9385+49.3453+48.3862+49.7931+48.9385+49.7931C49.4908+49.7931+49.9385+49.3453+49.9385+48.7931C49.9385+48.2408+49.4908+47.7931+48.9385+47.7931ZM44.9385+47.7931C44.3862+47.7931+43.9385+48.2408+43.9385+48.7931C43.9385+49.3453+44.3862+49.7931+44.9385+49.7931C45.4908+49.7931+45.9385+49.3453+45.9385+48.7931C45.9385+48.2408+45.4908+47.7931+44.9385+47.7931ZM40.9385+47.7931C40.3862+47.7931+39.9385+48.2408+39.9385+48.7931C39.9385+49.3453+40.3862+49.7931+40.9385+49.7931C41.4908+49.7931+41.9385+49.3453+41.9385+48.7931C41.9385+48.2408+41.4908+47.7931+40.9385+47.7931ZM32.9385+47.7931C32.3862+47.7931+31.9385+48.2408+31.9385+48.7931C31.9385+49.3453+32.3862+49.7931+32.9385+49.7931C33.4908+49.7931+33.9385+49.3453+33.9385+48.7931C33.9385+48.2408+33.4908+47.7931+32.9385+47.7931ZM28.9385+47.7931C28.3862+47.7931+27.9385+48.2408+27.9385+48.7931C27.9385+49.3453+28.3862+49.7931+28.9385+49.7931C29.4908+49.7931+29.9385+49.3453+29.9385+48.7931C29.9385+48.2408+29.4908+47.7931+28.9385+47.7931ZM24.9385+47.7931C24.3862+47.7931+23.9385+48.2408+23.9385+48.7931C23.9385+49.3453+24.3862+49.7931+24.9385+49.7931C25.4908+49.7931+25.9385+49.3453+25.9385+48.7931C25.9385+48.2408+25.4908+47.7931+24.9385+47.7931ZM20.9385+47.7931C20.3862+47.7931+19.9385+48.2408+19.9385+48.7931C19.9385+49.3453+20.3862+49.7931+20.9385+49.7931C21.4908+49.7931+21.9385+49.3453+21.9385+48.7931C21.9385+48.2408+21.4908+47.7931+20.9385+47.7931ZM52.9385+52.7931C52.3862+52.7931+51.9385+53.2408+51.9385+53.7931C51.9385+54.3453+52.3862+54.7931+52.9385+54.7931C53.4908+54.7931+53.9385+54.3453+53.9385+53.7931C53.9385+53.2408+53.4908+52.7931+52.9385+52.7931ZM48.9385+52.7931C48.3862+52.7931+47.9385+53.2408+47.9385+53.7931C47.9385+54.3453+48.3862+54.7931+48.9385+54.7931C49.4908+54.7931+49.9385+54.3453+49.9385+53.7931C49.9385+53.2408+49.4908+52.7931+48.9385+52.7931ZM44.9385+52.7931C44.3862+52.7931+43.9385+53.2408+43.9385+53.7931C43.9385+54.3453+44.3862+54.7931+44.9385+54.7931C45.4908+54.7931+45.9385+54.3453+45.9385+53.7931C45.9385+53.2408+45.4908+52.7931+44.9385+52.7931ZM40.9385+52.7931C40.3862+52.7931+39.9385+53.2408+39.9385+53.7931C39.9385+54.3453+40.3862+54.7931+40.9385+54.7931C41.4908+54.7931+41.9385+54.3453+41.9385+53.7931C41.9385+53.2408+41.4908+52.7931+40.9385+52.7931ZM32.9385+52.7931C32.3862+52.7931+31.9385+53.2408+31.9385+53.7931C31.9385+54.3453+32.3862+54.7931+32.9385+54.7931C33.4908+54.7931+33.9385+54.3453+33.9385+53.7931C33.9385+53.2408+33.4908+52.7931+32.9385+52.7931ZM28.9385+52.7931C28.3862+52.7931+27.9385+53.2408+27.9385+53.7931C27.9385+54.3453+28.3862+54.7931+28.9385+54.7931C29.4908+54.7931+29.9385+54.3453+29.9385+53.7931C29.9385+53.2408+29.4908+52.7931+28.9385+52.7931ZM24.9385+52.7931C24.3862+52.7931+23.9385+53.2408+23.9385+53.7931C23.9385+54.3453+24.3862+54.7931+24.9385+54.7931C25.4908+54.7931+25.9385+54.3453+25.9385+53.7931C25.9385+53.2408+25.4908+52.7931+24.9385+52.7931ZM20.9385+52.7931C20.3862+52.7931+19.9385+53.2408+19.9385+53.7931C19.9385+54.3453+20.3862+54.7931+20.9385+54.7931C21.4908+54.7931+21.9385+54.3453+21.9385+53.7931C21.9385+53.2408+21.4908+52.7931+20.9385+52.7931ZM52.9385+57.7931C52.3862+57.7931+51.9385+58.2408+51.9385+58.7931C51.9385+59.3453+52.3862+59.7931+52.9385+59.7931C53.4908+59.7931+53.9385+59.3453+53.9385+58.7931C53.9385+58.2408+53.4908+57.7931+52.9385+57.7931ZM48.9385+57.7931C48.3862+57.7931+47.9385+58.2408+47.9385+58.7931C47.9385+59.3453+48.3862+59.7931+48.9385+59.7931C49.4908+59.7931+49.9385+59.3453+49.9385+58.7931C49.9385+58.2408+49.4908+57.7931+48.9385+57.7931ZM44.9385+57.7931C44.3862+57.7931+43.9385+58.2408+43.9385+58.7931C43.9385+59.3453+44.3862+59.7931+44.9385+59.7931C45.4908+59.7931+45.9385+59.3453+45.9385+58.7931C45.9385+58.2408+45.4908+57.7931+44.9385+57.7931ZM40.9385+57.7931C40.3862+57.7931+39.9385+58.2408+39.9385+58.7931C39.9385+59.3453+40.3862+59.7931+40.9385+59.7931C41.4908+59.7931+41.9385+59.3453+41.9385+58.7931C41.9385+58.2408+41.4908+57.7931+40.9385+57.7931ZM32.9385+57.7931C32.3862+57.7931+31.9385+58.2408+31.9385+58.7931C31.9385+59.3453+32.3862+59.7931+32.9385+59.7931C33.4908+59.7931+33.9385+59.3453+33.9385+58.7931C33.9385+58.2408+33.4908+57.7931+32.9385+57.7931ZM28.9385+57.7931C28.3862+57.7931+27.9385+58.2408+27.9385+58.7931C27.9385+59.3453+28.3862+59.7931+28.9385+59.7931C29.4908+59.7931+29.9385+59.3453+29.9385+58.7931C29.9385+58.2408+29.4908+57.7931+28.9385+57.7931ZM24.9385+57.7931C24.3862+57.7931+23.9385+58.2408+23.9385+58.7931C23.9385+59.3453+24.3862+59.7931+24.9385+59.7931C25.4908+59.7931+25.9385+59.3453+25.9385+58.7931C25.9385+58.2408+25.4908+57.7931+24.9385+57.7931ZM20.9385+57.7931C20.3862+57.7931+19.9385+58.2408+19.9385+58.7931C19.9385+59.3453+20.3862+59.7931+20.9385+59.7931C21.4908+59.7931+21.9385+59.3453+21.9385+58.7931C21.9385+58.2408+21.4908+57.7931+20.9385+57.7931ZM52.9385+62.7931C52.3862+62.7931+51.9385+63.2408+51.9385+63.7931C51.9385+64.3453+52.3862+64.7931+52.9385+64.7931C53.4908+64.7931+53.9385+64.3453+53.9385+63.7931C53.9385+63.2408+53.4908+62.7931+52.9385+62.7931ZM48.9385+62.7931C48.3862+62.7931+47.9385+63.2408+47.9385+63.7931C47.9385+64.3453+48.3862+64.7931+48.9385+64.7931C49.4908+64.7931+49.9385+64.3453+49.9385+63.7931C49.9385+63.2408+49.4908+62.7931+48.9385+62.7931ZM44.9385+62.7931C44.3862+62.7931+43.9385+63.2408+43.9385+63.7931C43.9385+64.3453+44.3862+64.7931+44.9385+64.7931C45.4908+64.7931+45.9385+64.3453+45.9385+63.7931C45.9385+63.2408+45.4908+62.7931+44.9385+62.7931ZM65.9385+30.7931C65.3862+30.7931+64.9385+31.2408+64.9385+31.7931C64.9385+32.3453+65.3862+32.7931+65.9385+32.7931C66.4908+32.7931+66.9385+32.3453+66.9385+31.7931C66.9385+31.2408+66.4908+30.7931+65.9385+30.7931ZM61.9385+30.7931C61.3862+30.7931+60.9385+31.2408+60.9385+31.7931C60.9385+32.3453+61.3862+32.7931+61.9385+32.7931C62.4908+32.7931+62.9385+32.3453+62.9385+31.7931C62.9385+31.2408+62.4908+30.7931+61.9385+30.7931ZM65.9385+35.7931C65.3862+35.7931+64.9385+36.2408+64.9385+36.7931C64.9385+37.3453+65.3862+37.7931+65.9385+37.7931C66.4908+37.7931+66.9385+37.3453+66.9385+36.7931C66.9385+36.2408+66.4908+35.7931+65.9385+35.7931ZM61.9385+35.7931C61.3862+35.7931+60.9385+36.2408+60.9385+36.7931C60.9385+37.3453+61.3862+37.7931+61.9385+37.7931C62.4908+37.7931+62.9385+37.3453+62.9385+36.7931C62.9385+36.2408+62.4908+35.7931+61.9385+35.7931ZM65.9385+40.7931C65.3862+40.7931+64.9385+41.2408+64.9385+41.7931C64.9385+42.3453+65.3862+42.7931+65.9385+42.7931C66.4908+42.7931+66.9385+42.3453+66.9385+41.7931C66.9385+41.2408+66.4908+40.7931+65.9385+40.7931ZM61.9385+40.7931C61.3862+40.7931+60.9385+41.2408+60.9385+41.7931C60.9385+42.3453+61.3862+42.7931+61.9385+42.7931C62.4908+42.7931+62.9385+42.3453+62.9385+41.7931C62.9385+41.2408+62.4908+40.7931+61.9385+40.7931ZM65.9385+45.7931C65.3862+45.7931+64.9385+46.2408+64.9385+46.7931C64.9385+47.3453+65.3862+47.7931+65.9385+47.7931C66.4908+47.7931+66.9385+47.3453+66.9385+46.7931C66.9385+46.2408+66.4908+45.7931+65.9385+45.7931ZM61.9385+45.7931C61.3862+45.7931+60.9385+46.2408+60.9385+46.7931C60.9385+47.3453+61.3862+47.7931+61.9385+47.7931C62.4908+47.7931+62.9385+47.3453+62.9385+46.7931C62.9385+46.2408+62.4908+45.7931+61.9385+45.7931ZM65.9385+50.7931C65.3862+50.7931+64.9385+51.2408+64.9385+51.7931C64.9385+52.3453+65.3862+52.7931+65.9385+52.7931C66.4908+52.7931+66.9385+52.3453+66.9385+51.7931C66.9385+51.2408+66.4908+50.7931+65.9385+50.7931ZM61.9385+50.7931C61.3862+50.7931+60.9385+51.2408+60.9385+51.7931C60.9385+52.3453+61.3862+52.7931+61.9385+52.7931C62.4908+52.7931+62.9385+52.3453+62.9385+51.7931C62.9385+51.2408+62.4908+50.7931+61.9385+50.7931ZM65.9385+55.7931C65.3862+55.7931+64.9385+56.2408+64.9385+56.7931C64.9385+57.3453+65.3862+57.7931+65.9385+57.7931C66.4908+57.7931+66.9385+57.3453+66.9385+56.7931C66.9385+56.2408+66.4908+55.7931+65.9385+55.7931ZM61.9385+55.7931C61.3862+55.7931+60.9385+56.2408+60.9385+56.7931C60.9385+57.3453+61.3862+57.7931+61.9385+57.7931C62.4908+57.7931+62.9385+57.3453+62.9385+56.7931C62.9385+56.2408+62.4908+55.7931+61.9385+55.7931ZM65.9385+60.7931C65.3862+60.7931+64.9385+61.2408+64.9385+61.7931C64.9385+62.3453+65.3862+62.7931+65.9385+62.7931C66.4908+62.7931+66.9385+62.3453+66.9385+61.7931C66.9385+61.2408+66.4908+60.7931+65.9385+60.7931ZM61.9385+60.7931C61.3862+60.7931+60.9385+61.2408+60.9385+61.7931C60.9385+62.3453+61.3862+62.7931+61.9385+62.7931C62.4908+62.7931+62.9385+62.3453+62.9385+61.7931C62.9385+61.2408+62.4908+60.7931+61.9385+60.7931ZM40.9385+62.7931C40.3862+62.7931+39.9385+63.2408+39.9385+63.7931C39.9385+64.3453+40.3862+64.7931+40.9385+64.7931C41.4908+64.7931+41.9385+64.3453+41.9385+63.7931C41.9385+63.2408+41.4908+62.7931+40.9385+62.7931ZM32.9385+62.7931C32.3862+62.7931+31.9385+63.2408+31.9385+63.7931C31.9385+64.3453+32.3862+64.7931+32.9385+64.7931C33.4908+64.7931+33.9385+64.3453+33.9385+63.7931C33.9385+63.2408+33.4908+62.7931+32.9385+62.7931ZM28.9385+62.7931C28.3862+62.7931+27.9385+63.2408+27.9385+63.7931C27.9385+64.3453+28.3862+64.7931+28.9385+64.7931C29.4908+64.7931+29.9385+64.3453+29.9385+63.7931C29.9385+63.2408+29.4908+62.7931+28.9385+62.7931ZM24.9385+62.7931C24.3862+62.7931+23.9385+63.2408+23.9385+63.7931C23.9385+64.3453+24.3862+64.7931+24.9385+64.7931C25.4908+64.7931+25.9385+64.3453+25.9385+63.7931C25.9385+63.2408+25.4908+62.7931+24.9385+62.7931ZM20.9385+62.7931C20.3862+62.7931+19.9385+63.2408+19.9385+63.7931C19.9385+64.3453+20.3862+64.7931+20.9385+64.7931C21.4908+64.7931+21.9385+64.3453+21.9385+63.7931C21.9385+63.2408+21.4908+62.7931+20.9385+62.7931Z" stroke-linecap="butt"/>
<path stroke-linecap="butt" d="M60.9385+64.7931L60.9385+10.7931L12.9385+10.7931L12.9385+64.7931C12.9385+68.1071+15.6245+70.7931+18.9385+70.7931L66.9385+70.7931C63.6245+70.7931+60.9385+68.1071+60.9385+64.7931Z" opacity="1" fill="none" stroke-width="2" stroke="#ecebed" stroke-linejoin="miter"/>
<path stroke-width="2" fill="none" stroke="#ecebed" opacity="1" stroke-linecap="butt" d="M60.9385+20.7931L72.9385+20.7931L72.9385+64.7931C72.9385+68.1071+70.2525+70.7931+66.9385+70.7931M19.9385+26.7931L53.9385+26.7931M19.9385+21.7931L53.9385+21.7931" stroke-linejoin="miter"/>
</g>
</svg>
